<?xml version="1.0" encoding="UTF-8"?>
<svg version="1.1" viewBox="0 0 512 512" xmlns="http://www.w3.org/2000/svg">
	<g transform="matrix(1.0301 0 0 1.0301 -7.7098 1.0298)">
		<path d="m104 496h-32a24 24 0 0 1-24-24v-144a24 24 0 0 1 24-24h32a24 24 0 0 1 24 24v144a24 24 0 0 1-24 24z" fill="#6a6a6a"/>
		<path d="m328 496h-32a24 24 0 0 1-24-24v-240a24 24 0 0 1 24-24h32a24 24 0 0 1 24 24v240a24 24 0 0 1-24 24z" fill="#6a6a6a"/>
		<path d="m440 496h-32a24 24 0 0 1-24-24v-352a24 24 0 0 1 24-24h32a24 24 0 0 1 24 24v352a24 24 0 0 1-24 24z" fill="#292929"/>
		<path d="m216 496h-32a24 24 0 0 1-24-24v-432a24 24 0 0 1 24-24h32a24 24 0 0 1 24 24v432a24 24 0 0 1-24 24z" fill="#292929"/>
	</g>
</svg>
