<?xml version="1.0" encoding="UTF-8"?>
<svg version="1.1" viewBox="0 0 512 512" xmlns="http://www.w3.org/2000/svg">
	<path d="m368 343.9v45.71c51.98 5.611 96 16.06 96 34.36 0 31.58-130.7 40-208 40-77.25 0-208-8.424-208-40 0-19.71 50.69-29.58 96-34.49v-45.81c-60.15 8.83-144 30.13-144 80.33 0 69.5 160.9 88 256 88s256-18.53 256-88c0-45.6-69.4-69.2-144-80.1z" fill="#6a6a6a"/>
	<path d="m256 0c-35.38 0-64 28.62-64 64s28.6 64 64 64c35.38 0 64-28.62 64-64s-28.62-64-64-64zm-32 160c-35.3 0-64 28.7-64 64v48c0 17.7 14.3 32 32 32l12.5 99.971c2 15.13 15.599 28.029 31.699 28.029h39.5c16.14 0 29.75-12.019 31.75-28.029l12.551-99.971c17.67 0 32-14.33 32-32v-48c0-35.35-28.65-64-64-64h-64z" fill="#292929"/>
</svg>
