<?xml version="1.0" encoding="UTF-8"?>
<svg width="60.859mm" height="67.733mm" version="1.1" viewBox="0 0 60.859 67.733" xmlns="http://www.w3.org/2000/svg">
	<g transform="translate(-136.45 -55.033)">
		<g transform="matrix(1.1483 0 0 1.1483 130.14 52.147)" fill="#3069fe">
			<g fill="#3069fe">
				<path d="m49.7 35.9c-2.4-14.7-20.2-31.9-21-32.6-0.4-0.4-1-0.4-1.4 0-0.9 0.8-21.3 20.4-21.3 35.7 0 12.1 9.9 22 22 22 3.4 0 6.7-0.8 9.7-2.3 2.1 1.4 4.6 2.3 7.3 2.3 7.2 0 13-5.8 13-13 0-5.5-3.4-10.2-8.3-12.1zm-21.7 23.1c-11 0-20-9-20-20 0-12.9 16.4-30 20-33.6 3.3 3.3 17 17.6 19.6 29.9-0.9-0.2-1.7-0.3-2.6-0.3-7.2 0-13 5.8-13 13 0 3.7 1.5 7 4 9.3-2.5 1.1-5.2 1.7-8 1.7zm17 0c-6.1 0-11-4.9-11-11s4.9-11 11-11 11 4.9 11 11-4.9 11-11 11z" stroke="#3069fe"/>
				<path d="m28 54c-8.3 0-15-6.7-15-15 0-0.6-0.4-1-1-1s-1 0.4-1 1c0 9.4 7.6 17 17 17 0.6 0 1-0.4 1-1s-0.4-1-1-1z"/>
				<path d="m48.4 40.1c-0.5-0.2-1.1 0-1.3 0.5l-6 14c-0.2 0.5 0 1.1 0.5 1.3 0.1 0.1 0.3 0.1 0.4 0.1 0.4 0 0.8-0.2 0.9-0.6l6-14c0.2-0.5 0-1.1-0.5-1.3z"/>
				<path d="m44 44c0-1.7-1.3-3-3-3s-3 1.3-3 3 1.3 3 3 3 3-1.3 3-3zm-4 0c0-0.6 0.4-1 1-1s1 0.4 1 1-0.4 1-1 1-1-0.4-1-1z"/>
				<path d="m49 49c-1.7 0-3 1.3-3 3s1.3 3 3 3 3-1.3 3-3-1.3-3-3-3zm0 4c-0.6 0-1-0.4-1-1s0.4-1 1-1 1 0.4 1 1-0.4 1-1 1z"/>
			</g>
		</g>
	</g>
</svg>
