<?xml version="1.0" encoding="UTF-8"?>
<svg width="46.96mm" height="67.733mm" version="1.1" viewBox="0 0 46.96 67.733" xmlns="http://www.w3.org/2000/svg">
	<g transform="translate(-143.4 -55.033)">
		<g transform="matrix(1.8708 0 0 1.8708 114.41 38.263)" fill="#3069fe">
			<g transform="translate(0 -7.8302)" fill="#3069fe">
				<path d="m25.5 38c-2.7 0-4.9 2.2-4.9 4.9s2.2 4.9 4.9 4.9 4.9-2.2 4.9-4.9-2.2-4.9-4.9-4.9zm0 7.8c-1.6 0-2.9-1.3-2.9-2.9s1.3-2.9 2.9-2.9 2.9 1.3 2.9 2.9-1.3 2.9-2.9 2.9z"/>
				<path d="m30 33.8v-12.605c0-1.2-0.5-2.3-1.3-3.1-0.9-0.8-2-1.3-3.2-1.3-2.4 0-4.4 2-4.4 4.4v12.605c-3.5 1.7-5.6 5.2-5.6 9.1-0.1 5.6 4.5 10.1 10 10.1 5.6 0 10.1-4.5 10.1-10.1 0-3.9-2.2-7.4-5.6-9.1zm-4.5 17.2c-4.5 0-8.1-3.6-8.1-8.1 0-3.3 2-6.2 5-7.5 0.4-0.2 0.6-0.5 0.6-0.9v-13.305c0-1.3 1.1-2.4 2.4-2.4 0.7 0 1.3 0.3 1.7 0.7 0.6 0.5 0.9 1.1 0.9 1.7v13.205c0 0.4 0.2 0.8 0.6 0.9 3.1 1.3 5 4.2 5 7.5 0 4.6-3.6 8.2-8.1 8.2z"/>
				<path d="m32.6 20.341h3.5c0.6 0 1-0.4 1-1s-0.4-1-1-1h-3.5c-0.6 0-1 0.4-1 1s0.5 1 1 1z"/>
				<path d="m39.6 23.951h-6.9c-0.6 0-1 0.4-1 1s0.4 1 1 1h6.9c0.6 0 1-0.4 1-1s-0.5-1-1-1z"/>
				<path d="m36.1 30.051h-3.5c-0.6 0-1 0.4-1 1s0.4 1 1 1h3.5c0.6 0 1-0.4 1-1s-0.5-1-1-1z"/>
			</g>
		</g>
	</g>
</svg>
